# xmcd
#
# Track frame offsets:
#	150
#	13611
#	24319
#	38164
#	50873
#	61569
#	76257
#	88192
#	99741
#	111719
#	122477
#	135508
#	148979
#	163467
#	173776
#	186334
#	195180
#	206619
#	220631
#	229110
#	239575
#	248367
#	260239
#	269578
#	283257
#	295434
#	307618
#	317780
#	329093
#	340673
#	351642
#	360376
#
# Disc length: 4951 seconds
#
# Revision: 1
# Processed by: cddbd v1.5.2PL0 Copyright (c) Steve Scherf et al.
# Submitted via: audiograbber 1.83.01
#
DISCID=f4135520
DTITLE=Treniers, the - Bear Family BCD 16164
DYEAR=2010
DGENRE=Rock´n´Roll - R&B
TTITLE0=Everybody Get Together
TTITLE1=Go! Go! Go!  (1951)
TTITLE2=It Rocks! It Rolls! It Swings!
TTITLE3=Hadacole That´s All
TTITLE4=This It It
TTITLE5=Rocking On Sunday Night
TTITLE6=Poon-Tang
TTITLE7=Hi-Yo Silver
TTITLE8=Rockin´Is Our Bizness
TTITLE9=The Moondog
TTITLE10=Squeeze Me
TTITLE11=Flip Your Wings
TTITLE12=You´re Killin´Me
TTITLE13=Rock-A-Beatin´Boogie
TTITLE14=Bald Head
TTITLE15=Doin`Em Up
TTITLE16=I Said No
TTITLE17=Straighten Up Baby
TTITLE18=Day Old Bread
TTITLE19=Go! Go! Go!  (1955)
TTITLE20=Out Of The Brushes
TTITLE21=Oh! Oh1 ( Get Out Off The Car )
TTITLE22=Everything´s Wild In The Wildwood
TTITLE23=Good Rockin´Tonight
TTITLE24=Boodie Green
TTITLE25=Rock´n´Roll Call
TTITLE26=Rock-A-Way
TTITLE27=Drink Wine Spo Dee O Dee
TTITLE28=Rock And Roll President
TTITLE29=Madune
TTITLE30=Cool It Baby
TTITLE31=Rock Calypso Joe
EXTD=
EXTT0=
EXTT1=
EXTT2=
EXTT3=
EXTT4=
EXTT5=
EXTT6=
EXTT7=
EXTT8=
EXTT9=
EXTT10=
EXTT11=
EXTT12=
EXTT13=
EXTT14=
EXTT15=
EXTT16=
EXTT17=
EXTT18=
EXTT19=
EXTT20=
EXTT21=
EXTT22=
EXTT23=
EXTT24=
EXTT25=
EXTT26=
EXTT27=
EXTT28=
EXTT29=
EXTT30=
EXTT31=
PLAYORDER=
